<svg width="147" height="50" viewBox="0 0 147 50" fill="none" xmlns="http://www.w3.org/2000/svg">
<g clip-path="url(#clip0_885_18097)">
<path d="M8.24863 45.0726H7.34702V49.9047H8.24863V45.0726Z" fill="white"/>
<path d="M11.49 45.0726L13.9042 48.6068H13.934V45.0726H14.8356V49.9047H13.7105L11.2888 46.3631H11.259V49.9047H10.3574V45.0726H11.49Z" fill="white"/>
<path d="M20.9681 45.0726V45.8792H19.217V49.9047H18.3228V45.8792H16.5718V45.0726H20.9681Z" fill="white"/>
<path d="M26.5715 45.0726V45.8645H23.6058V47.0084H26.2287V47.7929H23.6058V49.1054H26.5715V49.9047H22.7042V45.0726H26.5715Z" fill="white"/>
<path d="M29.403 45.0726V49.0688H32.2047V49.9047H28.5014V45.0726H29.403Z" fill="white"/>
<path d="M34.8425 45.0726H33.9408V49.9047H34.8425V45.0726Z" fill="white"/>
<path d="M36.7053 47.485C36.7053 45.9745 37.7485 44.9699 39.2089 44.9699C40.3863 44.9699 41.2134 45.6005 41.5561 46.6124H40.58C40.3043 46.0771 39.8647 45.7838 39.2089 45.7838C38.2552 45.7838 37.6144 46.4584 37.6144 47.485C37.6144 48.5115 38.2701 49.1861 39.2909 49.1861C39.9988 49.1861 40.5353 48.8121 40.811 48.0202H39.1046V47.265H41.6083V49.9047H40.8408V49.1714H40.811C40.431 49.7287 39.8572 50 39.1791 50C37.7485 50 36.7053 48.9955 36.7053 47.485Z" fill="white"/>
<path d="M47.4352 45.0726V45.8645H44.4621V47.0084H47.0925V47.7929H44.4621V49.1054H47.4352V49.9047H43.5605V45.0726H47.4352Z" fill="white"/>
<path d="M50.4903 45.0726L52.912 48.6068H52.9418V45.0726H53.8434V49.9047H52.7182L50.2891 46.3631H50.2593V49.9047H49.3577V45.0726H50.4903Z" fill="white"/>
<path d="M55.6913 47.485C55.6913 45.9891 56.7941 44.9699 58.262 44.9699C59.5287 44.9699 60.4602 45.7472 60.7359 46.8544H59.7821C59.5511 46.2238 59.0221 45.7838 58.262 45.7838C57.2784 45.7838 56.6004 46.5024 56.6004 47.485C56.6004 48.4675 57.2784 49.1861 58.262 49.1861C59.0221 49.1861 59.5511 48.7462 59.7821 48.1156H60.7359C60.4602 49.2228 59.5287 50 58.262 50C56.7941 50 55.6913 48.9808 55.6913 47.485Z" fill="white"/>
<path d="M63.4332 45.0726H62.5316V49.9047H63.4332V45.0726Z" fill="white"/>
<path d="M68.0307 45.0726L70.1022 49.9047H69.1484L68.6864 48.8195H66.3989L65.9369 49.9047H64.9831L67.0546 45.0726H68.0307ZM68.3735 48.0789L67.5613 46.1651H67.5315L66.7193 48.0789H68.3735Z" fill="white"/>
<path d="M74.8934 45.0726L76.3837 46.9717L77.8739 45.0726H78.9395L76.8382 47.8223V49.9047H75.9291V47.8223L73.8279 45.0726H74.8934Z" fill="white"/>
<path d="M87.2403 45.0726V45.8792H85.4892V49.9047H84.595V45.8792H82.844V45.0726H87.2403Z" fill="white"/>
<path d="M92.8437 45.0726V45.8645H89.8781V47.0084H92.5009V47.7929H89.8781V49.1054H92.8437V49.9047H88.9764V45.0726H92.8437Z" fill="white"/>
<path d="M94.3787 47.485C94.3787 45.9891 95.4815 44.9699 96.9494 44.9699C98.2161 44.9699 99.1475 45.7472 99.4232 46.8544H98.4694C98.2384 46.2238 97.7094 45.7838 96.9494 45.7838C95.9658 45.7838 95.2877 46.5024 95.2877 47.485C95.2877 48.4675 95.9658 49.1861 96.9494 49.1861C97.7094 49.1861 98.2384 48.7462 98.4694 48.1156H99.4232C99.1475 49.2228 98.2161 50 96.9494 50C95.4815 50 94.3787 48.9808 94.3787 47.485Z" fill="white"/>
<path d="M102.352 45.0726L104.766 48.6068H104.796V45.0726H105.697V49.9047H104.572L102.15 46.3631H102.121V49.9047H101.219V45.0726H102.352Z" fill="white"/>
<path d="M107.553 47.485C107.553 45.9452 108.641 44.9699 110.086 44.9699C111.532 44.9699 112.62 45.9452 112.62 47.485C112.62 49.0248 111.532 50 110.086 50C108.641 50 107.553 49.0248 107.553 47.485ZM110.086 49.1861C111.025 49.1861 111.718 48.5115 111.718 47.485C111.718 46.4584 111.025 45.7838 110.086 45.7838C109.147 45.7838 108.462 46.4584 108.462 47.485C108.462 48.5115 109.155 49.1861 110.086 49.1861Z" fill="white"/>
<path d="M115.369 45.0726V49.0688H118.178V49.9047H114.475V45.0726H115.369Z" fill="white"/>
<path d="M119.43 47.485C119.43 45.9452 120.518 44.9699 121.964 44.9699C123.409 44.9699 124.497 45.9452 124.497 47.485C124.497 49.0248 123.409 50 121.964 50C120.518 50 119.43 49.0248 119.43 47.485ZM121.964 49.1861C122.902 49.1861 123.595 48.5115 123.595 47.485C123.595 46.4584 122.902 45.7838 121.964 45.7838C121.025 45.7838 120.339 46.4584 120.339 47.485C120.339 48.5115 121.032 49.1861 121.964 49.1861Z" fill="white"/>
<path d="M126.106 47.485C126.106 45.9745 127.15 44.9699 128.61 44.9699C129.787 44.9699 130.614 45.6005 130.957 46.6124H129.981C129.705 46.0771 129.266 45.7838 128.61 45.7838C127.656 45.7838 127.016 46.4584 127.016 47.485C127.016 48.5115 127.671 49.1861 128.692 49.1861C129.4 49.1861 129.936 48.8121 130.212 48.0202H128.506V47.265H131.009V49.9047H130.242V49.1714H130.212C129.832 49.7287 129.258 50 128.58 50C127.15 50 126.106 48.9955 126.106 47.485Z" fill="white"/>
<path d="M134.266 43.8481L133.312 44.706H132.783L133.468 43.8481H134.266ZM133.498 49.9047H132.85V44.9699H133.498V49.9047Z" fill="white"/>
<path d="M137.984 45.0726L140.055 49.9047H139.102L138.64 48.8195H136.352L135.89 49.9047H134.936L137.008 45.0726H137.984ZM138.327 48.0789L137.514 46.1651H137.485L136.672 48.0789H138.327Z" fill="white"/>
<path d="M24.5671 0H17.9875H17.7789L0 34.2646H6.78072L21.2736 6.33524L35.7664 34.2646H42.5546L24.7682 0H24.5671Z" fill="white"/>
<path d="M147 34.2646L129.221 0H129.012H122.44H122.232L104.453 34.2646H111.234L125.726 6.33524L140.219 34.2646H147Z" fill="white"/>
<path d="M81.3686 0H54.1638V34.2646H81.3686C89.8408 34.2646 96.7109 27.504 96.7109 19.167V15.1049C96.7109 6.76052 89.8408 0 81.3686 0ZM90.7946 19.3723C90.7946 24.4757 86.592 28.6186 81.3984 28.6186H59.9013V5.64599H81.3984C86.5845 5.64599 90.7946 9.78149 90.7946 14.8922V19.3723Z" fill="white"/>
<path d="M21.2736 34.2646C22.4464 34.2646 23.3972 33.3289 23.3972 32.1748C23.3972 31.0207 22.4464 30.0851 21.2736 30.0851C20.1007 30.0851 19.1499 31.0207 19.1499 32.1748C19.1499 33.3289 20.1007 34.2646 21.2736 34.2646Z" fill="white"/>
<path d="M125.726 34.2646C126.899 34.2646 127.85 33.3289 127.85 32.1748C127.85 31.0207 126.899 30.0851 125.726 30.0851C124.554 30.0851 123.603 31.0207 123.603 32.1748C123.603 33.3289 124.554 34.2646 125.726 34.2646Z" fill="white"/>
</g>
<defs>
<clipPath id="clip0_885_18097">
<rect width="147" height="50" fill="white"/>
</clipPath>
</defs>
</svg>
